<svg width="70" height="70" viewBox="0 0 70 70" fill="none" xmlns="http://www.w3.org/2000/svg">
<circle cx="34.8374" cy="34.8381" r="33.3358" stroke="#929DFF" stroke-width="3.00323"/>
<path d="M20.689 34.4139C20.689 32.8124 20.9846 31.2479 21.5759 29.7204C22.1919 28.1682 23.0788 26.7638 24.2368 25.5073C25.3948 24.2507 26.7992 23.2529 28.4499 22.5138C30.1253 21.75 31.6405 21.3965 33.7347 21.3965C36.2487 21.3965 38.8102 21.8978 40.6827 22.9572C42.5551 23.992 43.9472 25.3718 44.8588 27.0964L39.3522 31.0138C39.0319 30.1515 38.5638 29.4863 37.9478 29.0182C37.3565 28.5501 36.7036 28.2298 35.9891 28.0573C35.2993 27.8602 34.6217 27.7616 33.9565 27.7616C32.5768 27.7616 31.4434 28.1066 30.5565 28.7964C29.6941 29.4863 29.0535 30.3609 28.6347 31.4204C28.2159 32.4552 28.0064 33.5269 28.0064 34.6356C28.0064 35.8429 28.2405 36.9762 28.7086 38.0357C29.2014 39.0951 29.8912 39.9574 30.7782 40.6226C31.6898 41.2632 32.7739 41.5835 34.0304 41.5835C34.6956 41.5835 35.3732 41.485 36.063 41.2879C36.7529 41.0661 37.3812 40.7212 37.9478 40.2531C38.5145 39.785 38.9457 39.1567 39.2413 38.3683L45.1175 41.8792C44.6001 43.1604 43.7378 44.2567 42.5305 45.1683C41.3232 46.0799 39.9558 46.7821 38.4283 47.2749C36.9007 47.743 35.3855 47.9771 33.8826 47.9771C31.9362 47.9771 30.1499 47.5952 28.5238 46.8314C26.9224 46.043 25.5303 45.0082 24.3477 43.727C23.1897 42.4212 22.2904 40.9676 21.6498 39.3661C21.0093 37.74 20.689 36.0893 20.689 34.4139Z" stroke="#929DFF" stroke-width="0.900968" stroke-linejoin="round"/>
<path d="M47.4261 26.8897H46.7935V22.4264H45.2261V21.8711H48.9865V22.4264H47.4261V26.8897Z" stroke="#929DFF" stroke-width="0.900968"/>
</svg>
