<svg width="118" height="61" viewBox="0 0 118 61" fill="none" xmlns="http://www.w3.org/2000/svg">
<path d="M24.1723 54.5087L103.367 8.1716L78.0932 7.32812L22.4868 25.8636L24.1723 54.5087Z" fill="#7848FF"/>
<path d="M78.0931 7.33042L103.366 8.17389L24.1722 54.511L22.4867 25.8659L78.0931 7.33042ZM78.0931 5.05469C77.8487 5.0551 77.6059 5.09456 77.374 5.17155L21.7676 23.707C21.2933 23.8657 20.8844 24.1762 20.6042 24.5905C20.3239 25.0048 20.1879 25.4999 20.217 25.9992L21.9025 54.6444C21.9249 55.033 22.0468 55.4094 22.2564 55.7375C22.4661 56.0656 22.7564 56.3344 23.0997 56.5181C23.4429 56.7018 23.8276 56.7944 24.2168 56.7868C24.6061 56.7793 24.9869 56.672 25.3228 56.4751L104.516 10.138C104.942 9.88883 105.275 9.50813 105.466 9.05323C105.656 8.59832 105.694 8.09384 105.573 7.61572C105.452 7.13761 105.179 6.71174 104.795 6.40224C104.411 6.09274 103.937 5.91637 103.444 5.89966L78.168 5.05619L78.0931 5.05469Z" fill="black"/>
<path d="M2.26733 11.5451L115.162 2.27734L67.1399 58.7257L34.2819 34.2934L86.5173 10.7031L22.4867 25.8676L2.26733 11.5451Z" fill="white"/>
<path d="M115.162 2.27573L67.1399 58.7241L34.2819 34.2918L86.5173 10.7015L22.4867 25.866L2.26134 11.5435L115.157 2.27573M115.157 0C115.094 0 115.032 2.74313e-06 114.969 0.00749363L2.08905 9.27522C1.62375 9.31352 1.18149 9.494 0.822244 9.79219C0.463 10.0904 0.204161 10.4918 0.0808337 10.9421C-0.0424938 11.3924 -0.0243426 11.8698 0.132826 12.3094C0.289995 12.749 0.578576 13.1297 0.959429 13.3997L21.1848 27.7223C21.5686 27.9951 22.0278 28.1417 22.4987 28.1418C22.6758 28.1414 22.8522 28.1208 23.0246 28.0803L64.0162 18.3722L33.3455 32.2168C32.9854 32.3803 32.6742 32.6349 32.4424 32.9554C32.2107 33.2758 32.0665 33.6512 32.024 34.0444C31.9815 34.4375 32.0422 34.835 32.2001 35.1976C32.358 35.5602 32.6077 35.8754 32.9245 36.1121L65.7826 60.5503C66.2461 60.8952 66.8235 61.0508 67.3976 60.9854C67.9716 60.92 68.4992 60.6386 68.8733 60.1983L116.896 3.74994C117.176 3.41897 117.355 3.01494 117.414 2.58536C117.472 2.15579 117.406 1.71855 117.224 1.32509C117.042 0.931627 116.752 0.598317 116.387 0.364367C116.022 0.130417 115.597 0.00556094 115.164 0.00449435L115.157 0Z" fill="black"/>
<path d="M63.7705 51.3526C63.3949 51.354 63.0272 51.2438 62.7143 51.0359C62.4013 50.8281 62.1572 50.532 62.0127 50.1852C61.8683 49.8384 61.8301 49.4565 61.903 49.0879C61.9759 48.7194 62.1566 48.3808 62.4222 48.1151L88.5474 21.9973C88.7235 21.8212 88.9326 21.6814 89.1627 21.586C89.3928 21.4906 89.6394 21.4415 89.8885 21.4414C90.1376 21.4413 90.3843 21.4903 90.6144 21.5856C90.8446 21.6808 91.0537 21.8205 91.2299 21.9966C91.4061 22.1727 91.5459 22.3817 91.6412 22.6118C91.7366 22.8419 91.7858 23.0886 91.7858 23.3377C91.7859 23.5868 91.7369 23.8334 91.6416 24.0636C91.5464 24.2938 91.4067 24.5029 91.2306 24.6791L65.1114 50.7968C64.9355 50.9732 64.7265 51.1131 64.4964 51.2085C64.2663 51.3039 64.0196 51.3529 63.7705 51.3526Z" fill="#7848FF" fill-opacity="0.3"/>
</svg>
