<svg width="21" height="19" viewBox="0 0 21 19" fill="none" xmlns="http://www.w3.org/2000/svg">
<path d="M0 9.70611C0 8.60885 0.202571 7.53691 0.607713 6.49029C1.02974 5.42679 1.63745 4.46458 2.43085 3.60365C3.22426 2.74272 4.18647 2.05905 5.31749 1.55262C6.46539 1.02931 7.50354 0.787109 8.93842 0.787109C10.6609 0.787109 12.4159 1.13059 13.6989 1.85648C14.9818 2.56547 15.9356 3.51081 16.5602 4.69247L12.7873 7.37654C12.5679 6.7857 12.2471 6.32992 11.8251 6.00918C11.4199 5.68845 10.9726 5.46899 10.4831 5.35083C10.0104 5.21578 9.54616 5.14826 9.09038 5.14826C8.14505 5.14826 7.36852 5.38459 6.76081 5.85725C6.16998 6.32992 5.73107 6.92919 5.4441 7.65507C5.15712 8.36407 5.01364 9.09839 5.01364 9.85803C5.01364 10.6852 5.174 11.4617 5.49474 12.1876C5.83236 12.9135 6.30503 13.5043 6.91274 13.9601C7.53733 14.399 8.28009 14.6185 9.14102 14.6185C9.59681 14.6185 10.061 14.5509 10.5337 14.4159C11.0064 14.264 11.4368 14.0276 11.8251 13.7069C12.2134 13.3861 12.5088 12.9557 12.7113 12.4155L16.7374 14.821C16.3829 15.6988 15.7921 16.45 14.9649 17.0746C14.1378 17.6992 13.2009 18.1803 12.1543 18.518C11.1076 18.8387 10.0695 18.9991 9.03974 18.9991C7.70614 18.9991 6.48228 18.7374 5.36813 18.2141C4.27087 17.6739 3.3171 16.9649 2.50682 16.0871C1.71341 15.1924 1.09726 14.1964 0.658356 13.0992C0.219452 11.985 0 10.854 0 9.70611Z" fill="white"/>
<path d="M18.8486 4.8597H18.2373V0.537697H16.7227V0H20.3565V0.537697H18.8486V4.8597Z" fill="white"/>
</svg>
