<svg width="29" height="29" viewBox="0 0 29 29" fill="none" xmlns="http://www.w3.org/2000/svg">
<g filter="url(#filter0_dd_23309_45683)">
<path d="M13.4968 9.69807C13.6755 8.57409 15.2933 8.57409 15.472 9.69807L15.8794 12.2607C15.9474 12.6881 16.2826 13.0233 16.71 13.0913L19.2726 13.4987C20.3966 13.6774 20.3966 15.2952 19.2726 15.4739L16.71 15.8814C16.2826 15.9493 15.9474 16.2845 15.8794 16.7119L15.472 19.2746C15.2933 20.3986 13.6755 20.3986 13.4968 19.2746L13.0893 16.7119C13.0214 16.2845 12.6862 15.9493 12.2588 15.8814L9.69611 15.4739C8.57214 15.2952 8.57214 13.6774 9.69611 13.4987L12.2588 13.0913C12.6862 13.0233 13.0214 12.6881 13.0893 12.2607L13.4968 9.69807Z" fill="white"/>
</g>
<defs>
<filter id="filter0_dd_23309_45683" x="-0.00309753" y="0.000808716" width="28.9749" height="28.971" filterUnits="userSpaceOnUse" color-interpolation-filters="sRGB">
<feFlood flood-opacity="0" result="BackgroundImageFix"/>
<feColorMatrix in="SourceAlpha" type="matrix" values="0 0 0 0 0 0 0 0 0 0 0 0 0 0 0 0 0 0 127 0" result="hardAlpha"/>
<feOffset/>
<feGaussianBlur stdDeviation="4.42733"/>
<feComposite in2="hardAlpha" operator="out"/>
<feColorMatrix type="matrix" values="0 0 0 0 1 0 0 0 0 1 0 0 0 0 1 0 0 0 0.25 0"/>
<feBlend mode="normal" in2="BackgroundImageFix" result="effect1_dropShadow_23309_45683"/>
<feColorMatrix in="SourceAlpha" type="matrix" values="0 0 0 0 0 0 0 0 0 0 0 0 0 0 0 0 0 0 127 0" result="hardAlpha"/>
<feOffset/>
<feGaussianBlur stdDeviation="4.42733"/>
<feComposite in2="hardAlpha" operator="out"/>
<feColorMatrix type="matrix" values="0 0 0 0 1 0 0 0 0 1 0 0 0 0 1 0 0 0 0.69 0"/>
<feBlend mode="normal" in2="effect1_dropShadow_23309_45683" result="effect2_dropShadow_23309_45683"/>
<feBlend mode="normal" in="SourceGraphic" in2="effect2_dropShadow_23309_45683" result="shape"/>
</filter>
</defs>
</svg>
